<svg xmlns="http://www.w3.org/2000/svg" version="1.1" xmlns:xlink="http://www.w3.org/1999/xlink" width="512" height="512" x="0" y="0" viewBox="0 0 66 66" style="enable-background:new 0 0 512 512" xml:space="preserve" class=""><g><path d="M59.7 52.9H6c-2.8 0-5-2.2-5-5V11.2c0-2.8 2.2-5 5-5h49.2c.6 0 1 .4 1 1s-.4 1-1 1H6c-1.7 0-3 1.3-3 3v36.7c0 1.7 1.3 3 3 3h53.7c1.9 0 3.3-1.5 3.3-3.3s-1.4-3.3-3.3-3.3c-.6 0-1-.4-1-1s.4-1 1-1c3 0 5.3 2.3 5.3 5.3s-2.3 5.3-5.3 5.3z" fill="#ef2e54" opacity="1" data-original="#000000" class=""></path><path d="M64 48.6c-.6 0-1-.4-1-1 0-1.9-1.4-3.3-3.3-3.3h-4.3c-.6 0-1-.4-1-1v-41c0-.6.4-1 1-1h4.3c3 0 5.3 2.3 5.3 5.3v41c0 .6-.4 1-1 1zm-7.6-6.3h3.3c1.3 0 2.4.4 3.3 1.1V6.6c0-1.9-1.4-3.3-3.3-3.3h-3.3zM57.3 64.7H8.7c-.6 0-1-.4-1-1v-8.3c0-.6.4-1 1-1h48.6c.6 0 1 .4 1 1v8.3c0 .6-.4 1-1 1zm-47.6-2h46.6v-6.3H9.7z" fill="#ef2e54" opacity="1" data-original="#000000" class=""></path><path d="M14.2 58.5c-.6 0-1-.4-1-1v-2.1c0-.6.4-1 1-1s1 .4 1 1v2.1c0 .6-.4 1-1 1zM18.9 59.5c-.6 0-1-.4-1-1v-3.1c0-.6.4-1 1-1s1 .4 1 1v3.1c0 .6-.4 1-1 1zM23.6 58.5c-.6 0-1-.4-1-1v-2.1c0-.6.4-1 1-1s1 .4 1 1v2.1c0 .6-.4 1-1 1zM28.3 59.5c-.6 0-1-.4-1-1v-3.1c0-.6.4-1 1-1s1 .4 1 1v3.1c0 .6-.4 1-1 1zM33 58.5c-.6 0-1-.4-1-1v-2.1c0-.6.4-1 1-1s1 .4 1 1v2.1c0 .6-.4 1-1 1zM37.7 59.5c-.6 0-1-.4-1-1v-3.1c0-.6.4-1 1-1s1 .4 1 1v3.1c0 .6-.4 1-1 1zM42.4 58.5c-.6 0-1-.4-1-1v-2.1c0-.6.4-1 1-1s1 .4 1 1v2.1c0 .6-.4 1-1 1zM47.1 59.5c-.6 0-1-.4-1-1v-3.1c0-.6.4-1 1-1s1 .4 1 1v3.1c0 .6-.4 1-1 1zM51.8 58.5c-.6 0-1-.4-1-1v-2.1c0-.6.4-1 1-1s1 .4 1 1v2.1c0 .6-.4 1-1 1zM21.1 41.3c-.6 0-1-.4-1-1v-7.7l-3.9 3.8c-.4.4-1 .4-1.4 0L11 32.6v7.7c0 .6-.4 1-1 1s-1-.4-1-1V30.2c0-.4.2-.8.6-.9.4-.2.8-.1 1.1.2l4.8 4.8 4.9-4.8c.3-.3.7-.4 1.1-.2s.6.5.6.9v10.1c0 .6-.4 1-1 1zM27.5 31.1h-2.8c-.6 0-1-.4-1-1s.4-1 1-1 1-.4 1-1-.4-1-1-1c-.3 0-.6.1-.8.3-.4.4-1 .4-1.4 0s-.4-1 0-1.4c.6-.6 1.3-.9 2.2-.9 1.7 0 3 1.3 3 3 0 .4-.1.7-.2 1 .5 0 1 .5 1 1 0 .6-.4 1-1 1zM24.2 45.9H7c-.6 0-1-.4-1-1s.4-1 1-1h17.2c.6 0 1 .4 1 1s-.4 1-1 1z" fill="#ef2e54" opacity="1" data-original="#000000" class=""></path><path d="M24.2 47.3c-.6 0-1-.4-1-1v-3c0-.6.4-1 1-1s1 .4 1 1v3c0 .6-.4 1-1 1zM7 47.3c-.6 0-1-.4-1-1v-3c0-.6.4-1 1-1s1 .4 1 1v3c0 .6-.4 1-1 1zM33.2 43.6c-.6 0-1-.4-1-1V28.8c0-.6.4-1 1-1s1 .4 1 1v13.8c0 .6-.4 1-1 1z" fill="#ef2e54" opacity="1" data-original="#000000" class=""></path><path d="M34.6 29.8h-3c-.6 0-1-.4-1-1s.4-1 1-1h3c.6 0 1 .4 1 1s-.4 1-1 1zM34.6 43.6h-3c-.6 0-1-.4-1-1s.4-1 1-1h3c.6 0 1 .4 1 1s-.4 1-1 1zM33 18.2c-.6 0-1-.4-1-1V7.3c0-.6.4-1 1-1s1 .4 1 1v9.9c0 .6-.4 1-1 1z" fill="#ef2e54" opacity="1" data-original="#000000" class=""></path><path d="M37.4 18.2h-8.8c-.6 0-1-.4-1-1s.4-1 1-1h8.8c.6 0 1 .4 1 1s-.4 1-1 1zM55.5 26.8H43.7c-.3 0-.5-.1-.7-.3l-3.3-3.3c-.4-.4-.4-1 0-1.4s1-.4 1.4 0l3 3h11.4c.6 0 1 .4 1 1s-.4 1-1 1zM19.4 22c-.3 0-.5-.1-.7-.3l-3.5-3.5H2c-.6 0-1-.4-1-1s.4-1 1-1h13.6c.3 0 .5.1.7.3l3.8 3.8c.4.4.4 1 0 1.4-.2.2-.4.3-.7.3zM45.2 52.8c-.6 0-1-.4-1-1V35.1c0-.6.4-1 1-1s1 .4 1 1v16.7c0 .6-.4 1-1 1z" fill="#ef2e54" opacity="1" data-original="#000000" class=""></path></g></svg>