<svg xmlns="http://www.w3.org/2000/svg" version="1.1" xmlns:xlink="http://www.w3.org/1999/xlink" width="512" height="512" x="0" y="0" viewBox="0 0 490.667 490.667" style="enable-background:new 0 0 512 512" xml:space="preserve" class=""><g><path d="M480 0H10.667C4.779 0 0 4.779 0 10.667V480c0 5.888 4.779 10.667 10.667 10.667H96c5.888 0 10.667-4.779 10.667-10.667v-10.667H384V480c0 5.888 4.779 10.667 10.667 10.667H480c5.888 0 10.667-4.779 10.667-10.667V10.667C490.667 4.779 485.888 0 480 0zm-10.667 469.333h-64v-10.667c0-5.888-4.779-10.667-10.667-10.667H96c-5.888 0-10.667 4.779-10.667 10.667v10.667h-64v-448h448v448z" fill="#ef2e54" opacity="1" data-original="#000000" class=""></path><path d="M394.667 106.667H96c-5.888 0-10.667 4.779-10.667 10.667v341.333c0 5.888 4.779 10.667 10.667 10.667h298.667c5.888 0 10.667-4.779 10.667-10.667V117.333c-.001-5.888-4.779-10.666-10.667-10.666zM384 448H106.667V128H384v320z" fill="#ef2e54" opacity="1" data-original="#000000" class=""></path><path d="M245.333 106.667c-5.888 0-10.667 4.779-10.667 10.667v341.333c0 5.888 4.779 10.667 10.667 10.667S256 464.555 256 458.667V117.333c0-5.888-4.779-10.666-10.667-10.666z" fill="#ef2e54" opacity="1" data-original="#000000" class=""></path><circle cx="437.333" cy="224" r="10.667" fill="#ef2e54" opacity="1" data-original="#000000" class=""></circle><circle cx="437.333" cy="266.667" r="10.667" fill="#ef2e54" opacity="1" data-original="#000000" class=""></circle><path d="m210.219 67.136-21.333-21.333c-4.16-4.16-10.923-4.16-15.083 0L152.47 67.136c-4.16 4.16-4.16 10.923 0 15.083s10.923 4.16 15.083 0l13.781-13.803 13.781 13.803a10.716 10.716 0 0 0 15.104 0c4.16-4.16 4.16-10.923 0-15.083zM338.197 45.803c-4.16-4.16-10.923-4.16-15.083 0l-13.781 13.781-13.803-13.781c-4.16-4.16-10.923-4.16-15.083 0s-4.16 10.923 0 15.083l21.333 21.333c2.091 2.069 4.821 3.115 7.552 3.115s5.461-1.045 7.531-3.115l21.333-21.333c4.161-4.161 4.161-10.923.001-15.083z" fill="#ef2e54" opacity="1" data-original="#000000" class=""></path></g></svg>