<svg xmlns="http://www.w3.org/2000/svg" version="1.1" xmlns:xlink="http://www.w3.org/1999/xlink" width="512" height="512" x="0" y="0" viewBox="0 0 316.8 316.8" style="enable-background:new 0 0 512 512" xml:space="preserve" class=""><g><path d="M243.6 126.8C228 110.4 207.2 98.8 184 94V79.6c0-3.2-1.2-6.4-3.6-8.4-2.4-2-5.2-3.6-8.4-3.6h-6.4L165.2 6c0-3.6-2.8-6-6-6-3.6 0-6 2.8-6 6l.4 61.6h-6.4c-3.2 0-6.4 1.2-8.4 3.6-2 2.4-3.6 5.2-3.6 8.4v14c-24.4 5.2-45.6 16.8-62 33.2-22 22-35.2 52-35.2 85.6 0 3.6 2.8 6 6 6h64c1.6 11.6 6.4 22 14.4 30 9.2 9.2 22 14.8 36 14.8s26.8-5.6 36-14.8c8-8 12.8-18.4 14.4-30h64c3.6 0 6-2.8 6-6 0-33.2-13.6-63.6-35.2-85.6zM146.8 80h24.8v12h-2.8c-3.2-.4-6.8-.4-10-.4-3.2-.4-6.4 0-9.6 0-.8 0-1.6 0-2.4.4V80zM186 239.6c-7.2 7.2-16.8 11.2-27.2 11.2-10.8 0-20.4-4.4-27.2-11.2-5.6-5.6-9.6-12.8-10.8-21.2h76.4c-1.6 8-5.2 15.6-11.2 21.2zm17.6-33.6H50.4c1.6-27.6 13.2-52.4 31.6-70.4 16.8-16.8 38.8-28 63.6-30.8.8 0 2-.4 2.8-.4 3.2-.4 6.8-.4 10-.4 3.6 0 6.8 0 10.4.4.8 0 2 .4 2.8.4 24.8 2.8 46.8 14 63.6 30.8 18.4 18.4 30 42.8 31.6 70.4h-63.2zM158.8 271.6c-3.6 0-6 2.8-6 6v33.2c0 3.6 2.8 6 6 6 3.6 0 6-2.8 6-6v-33.2c0-3.6-2.4-6-6-6zM213.6 294.4l-16.8-28.8c-1.6-2.8-5.6-4-8.4-2.4-2.8 1.6-4 5.6-2.4 8.4l16.8 28.8c1.6 2.8 5.6 4 8.4 2.4 2.8-1.6 4-5.6 2.4-8.4z" fill="#ef2e54" opacity="1" data-original="#000000" class=""></path><path d="m247.2 256.4-28.8-16.8c-2.8-1.6-6.8-.8-8.4 2.4-1.6 2.8-.8 6.8 2.4 8.4l28.8 16.8c2.8 1.6 6.8.8 8.4-2.4 1.6-2.8.8-6.8-2.4-8.4zM107.6 242c-1.6-2.8-5.6-4-8.4-2.4l-28.8 16.8c-2.8 1.6-4 5.6-2.4 8.4 1.6 2.8 5.6 4 8.4 2.4l28.8-16.8c2.8-2 4-5.6 2.4-8.4zM129.2 263.2c-2.8-1.6-6.8-.4-8.4 2.4L104 294.4c-1.6 2.8-.8 6.8 2.4 8.4 2.8 1.6 6.8.8 8.4-2.4l16.8-28.8c1.6-2.8.8-6.8-2.4-8.4z" fill="#ef2e54" opacity="1" data-original="#000000" class=""></path></g></svg>