<svg xmlns="http://www.w3.org/2000/svg" version="1.1" xmlns:xlink="http://www.w3.org/1999/xlink" width="512" height="512" x="0" y="0" viewBox="0 0 512 512" style="enable-background:new 0 0 512 512" xml:space="preserve" class=""><g><path d="M478.968 0h-33.032c-12.199 0-22.868 6.653-28.588 16.516h-20.96c-9.107 0-16.516 7.41-16.516 16.516h-24.774c-30.762 0-57.631 16.92-71.839 41.93-4.548-5.435-11.377-8.898-19-8.898h-16.516c-7.623 0-14.452 3.463-19 8.898-14.208-25.011-41.077-41.93-71.839-41.93H132.13c0-9.107-7.41-16.516-16.516-16.516h-20.96C88.932 6.653 78.264 0 66.065 0H33.032C14.818 0 0 14.818 0 33.032v24.774C0 71.466 11.114 82.58 24.774 82.58h49.548c10.765 0 19.944-6.905 23.354-16.516h17.937c9.107 0 16.516-7.41 16.516-16.516h24.774c36.428 0 66.065 29.636 66.065 66.065v297.29h-8.258c-13.66 0-24.774 11.114-24.774 24.774v24.774H173.42c-9.107 0-16.516 7.41-16.516 16.516v16.516c0 9.107 7.41 16.516 16.516 16.516h165.161c9.107 0 16.516-7.41 16.516-16.516v-16.516c0-9.107-7.41-16.516-16.516-16.516h-16.516v-24.774c0-13.66-11.114-24.774-24.774-24.774h-8.258v-297.29c0-36.428 29.636-66.065 66.065-66.065h24.774c0 9.107 7.41 16.516 16.516 16.516h17.937c3.409 9.611 12.588 16.516 23.354 16.516h49.548c13.66 0 24.774-11.114 24.774-24.774V33.032C512 14.818 497.182 0 478.968 0zM82.581 57.806c0 4.553-3.705 8.258-8.258 8.258H24.774c-4.553 0-8.258-3.705-8.258-8.258V33.032c0-9.107 7.41-16.516 16.516-16.516h33.032c9.107 0 16.516 7.41 16.516 16.516v24.774zm33.032-8.258H99.097V33.032h16.516zm123.871 41.291c0-4.553 3.705-8.258 8.258-8.258h16.516c4.553 0 8.258 3.705 8.258 8.258v24.774h-33.032zm99.107 404.645H173.419v-16.516H338.58zm-33.043-57.807v24.774h-99.097v-24.774c0-4.553 3.705-8.258 8.258-8.258h82.581c4.554 0 8.258 3.705 8.258 8.258zm-66.064-24.774V132.129h33.032v280.774zM396.387 33.032h16.516v16.516h-16.516zm99.097 24.774c0 4.553-3.705 8.258-8.258 8.258h-49.548c-4.553 0-8.258-3.705-8.258-8.258V33.032c0-9.107 7.41-16.516 16.516-16.516h33.032c9.107 0 16.516 7.41 16.516 16.516z" fill="#ef2e54" opacity="1" data-original="#000000" class=""></path><path d="M454.194 99.097h16.516v66.065h-16.516zM479.53 101.278l15.89-4.543 16.533 57.834-15.89 4.542zM413.37 154.466l16.533-57.835 15.89 4.542-16.534 57.835zM41.29 99.097h16.516v66.065H41.29zM.372 154.667l16.533-57.835 15.89 4.542-16.534 57.835zM66.442 101.39l15.89-4.542 16.532 57.833-15.89 4.542z" fill="#ef2e54" opacity="1" data-original="#000000" class=""></path></g></svg>