<svg xmlns="http://www.w3.org/2000/svg" version="1.1" xmlns:xlink="http://www.w3.org/1999/xlink" width="512" height="512" x="0" y="0" viewBox="0 0 500 500" style="enable-background:new 0 0 512 512" xml:space="preserve" class=""><g><path fill-rule="evenodd" d="M446.656 158.053c-1.677-1.85-4.057-2.867-6.599-2.867h-.811c-4.165 0-7.681 2.721-8.655 6.762l-22.016 87.95c-3.462 13.81-9.791 24.877-19.96 34.83l-22.827 22.329c1.785 3.9 2.488 8.244 2.056 12.653-.703 6.421-3.786 12.176-8.817 16.228l-57.122 46.244a6.335 6.335 0 0 1-4.057 1.428c-1.839 0-3.678-.811-4.977-2.38-2.218-2.753-1.785-6.794.974-9.023l57.122-46.249c2.326-1.888 3.787-4.582 4.111-7.595.325-3.013-.541-5.956-2.434-8.287a11.335 11.335 0 0 0-15.903-1.666l-65.236 52.822c-6.545 5.285-11.576 11.506-15.092 18.494l.974 67.589c.379.011.757.027 1.136.043 15.957.498 32.239.325 48.035.162 7.897-.086 16.12-.168 24.18-.168 4.057 0 7.465-3.321 7.519-7.405.379-24.509 3.462-28.545 19.852-45.806 2.596-2.742 5.517-5.848 8.925-9.504 8.06-8.763 16.011-15.59 23.747-22.178 12.658-10.819 24.558-21.037 34.133-38.076 16.715-29.935 19.69-84.039 22.07-127.508.595-11.522 1.19-22.395 2.001-32.018.213-2.542-.598-4.96-2.329-6.804zm-202.146 289.3-.92-67.746c-3.083-7.021-7.195-11.944-15.146-18.375l-65.236-52.822c-4.814-3.916-11.954-3.17-15.903 1.666-1.839 2.331-2.705 5.274-2.434 8.287.325 3.013 1.785 5.707 4.111 7.595l57.122 46.249c2.759 2.229 3.191 6.27.974 9.023-1.244 1.574-3.137 2.391-4.976 2.391a6.397 6.397 0 0 1-4.057-1.428l-57.122-46.255c-4.977-4.052-8.114-9.807-8.817-16.228-.433-4.409.27-8.752 2.11-12.653l-22.881-22.329c-10.169-9.953-16.498-21.021-19.96-34.83l-21.962-87.95c-1.028-4.041-4.49-6.762-8.655-6.762h-.866c-2.542 0-4.868 1.017-6.599 2.867s-2.542 4.262-2.326 6.805c.811 9.623 1.406 20.507 2.056 32.018 2.38 43.48 5.301 97.573 22.07 127.508 9.52 17.039 21.475 27.258 34.133 38.076 7.681 6.589 15.633 13.415 23.747 22.178a714.187 714.187 0 0 0 8.871 9.493c16.39 17.272 19.473 21.307 19.852 45.817.054 4.084 3.462 7.405 7.519 7.405zm217.292-281.435c-.811 9.445-1.406 20.231-2.056 31.65-2.434 44.794-5.463 100.548-23.638 133.079-10.657 19.046-23.476 29.989-37 41.57-7.411 6.35-15.092 12.917-22.665 21.118a608.291 608.291 0 0 1-9.034 9.64c-15.092 15.936-16.012 16.888-16.336 37.178-.162 11.051-9.304 20.042-20.339 20.042-8.006 0-16.174.081-24.071.168-7.952.086-16.012.173-24.18.173-8.114 0-16.228-.087-24.342-.341a143.5 143.5 0 0 1-5.301-.271 6.466 6.466 0 0 1-1.839.271h-81.788c-11.035 0-20.177-8.99-20.339-20.042-.324-20.29-1.244-21.242-16.336-37.189a563.224 563.224 0 0 1-9.034-9.629c-7.573-8.2-15.254-14.767-22.665-21.118-13.523-11.581-26.343-22.524-36.945-41.57-18.229-32.532-21.259-88.274-23.693-133.069-.649-11.419-1.244-22.216-2.001-31.661-.487-6.064 1.515-12.111 5.626-16.563a21.92 21.92 0 0 1 16.066-7.01h.866c10.007 0 18.662 6.783 21.096 16.487l21.962 87.961c2.867 11.403 8.114 20.534 16.498 28.751l22.178 21.697c8.601-5.831 20.339-5.664 28.777 1.185l65.29 52.827c5.301 4.289 9.845 8.59 13.631 13.999 3.624-5.128 8.06-9.813 13.253-13.999l65.236-52.827c4.976-4.035 11.305-5.896 17.688-5.22 4.057.427 7.843 1.817 11.089 4.035l22.178-21.697c8.384-8.217 13.631-17.348 16.498-28.751l21.962-87.961a21.782 21.782 0 0 1 21.15-16.487h.811a21.918 21.918 0 0 1 16.065 7.01c4.113 4.463 6.168 10.5 5.682 16.564zm-333.808 15.324c28.561-18.446 42.896-53.006 35.755-86.246 33.213 7.157 67.779-7.162 86.224-35.718 15.308 23.66 41.652 37.546 69.131 37.546 5.68 0 11.413-.595 17.147-1.828-7.194 33.24 7.14 67.8 35.701 86.246-28.561 18.451-42.896 53.016-35.701 86.257-33.267-7.156-67.833 7.157-86.278 35.723-15.254-23.66-41.598-37.546-69.131-37.546-5.68 0-11.414.59-17.093 1.823 7.141-33.24-7.194-67.805-35.755-86.257zm-19.798 0a6.387 6.387 0 0 1 3.786-5.847c33.213-15.011 49.17-53.482 36.296-87.593-.919-2.359-.324-5.02 1.461-6.81a6.43 6.43 0 0 1 6.816-1.461c34.079 12.874 72.593-3.056 87.576-36.291 1.028-2.293 3.3-3.775 5.842-3.775s4.814 1.482 5.842 3.775c15.038 33.235 53.498 49.165 87.631 36.291 2.326-.892 4.977-.319 6.762 1.461 1.785 1.791 2.38 4.452 1.515 6.81-12.928 34.111 3.029 72.582 36.242 87.593a6.389 6.389 0 0 1 3.787 5.847 6.392 6.392 0 0 1-3.787 5.858c-33.213 15.005-49.17 53.487-36.242 87.587a6.498 6.498 0 0 1-1.515 6.816c-1.785 1.78-4.436 2.353-6.762 1.461-34.133-12.879-72.593 3.062-87.631 36.28a6.366 6.366 0 0 1-5.842 3.776 6.365 6.365 0 0 1-5.842-3.776c-14.984-33.218-53.498-49.16-87.576-36.28a6.428 6.428 0 0 1-6.816-1.461c-1.785-1.79-2.38-4.452-1.461-6.816 12.874-34.1-3.083-72.582-36.296-87.587a6.391 6.391 0 0 1-3.786-5.858zm77.299 0c0-35.55 28.94-64.473 64.479-64.473s64.479 28.924 64.479 64.473c0 35.561-28.94 64.484-64.479 64.484-35.539.001-64.479-28.923-64.479-64.484zm-12.82 0c0-42.631 34.674-77.315 77.299-77.315s77.299 34.684 77.299 77.315c0 42.642-34.674 77.326-77.299 77.326-42.626 0-77.299-34.684-77.299-77.326zm39.974 8.363a6.361 6.361 0 0 1 0-9.082 6.37 6.37 0 0 1 9.034 0l17.959 17.937 38.135-48.051c2.164-2.775 6.221-3.245 8.979-1.039 2.813 2.202 3.245 6.242 1.082 9.017l-42.625 53.698a6.38 6.38 0 0 1-4.652 2.412 3.564 3.564 0 0 1-.379.016c-1.677 0-3.3-.676-4.544-1.883z" clip-rule="evenodd" fill="#ec184f" opacity="1" data-original="#000000" class=""></path></g></svg>